<?xml version="1.0" standalone="no"?>
<!DOCTYPE svg PUBLIC "-//W3C//DTD SVG 20010904//EN"
 "http://www.w3.org/TR/2001/REC-SVG-20010904/DTD/svg10.dtd">
<svg version="1.0" xmlns="http://www.w3.org/2000/svg"
 width="438.000000pt" height="438.000000pt" viewBox="0 0 438.000000 438.000000"
 preserveAspectRatio="xMidYMid meet">
<metadata>
Created by potrace 1.11, written by Peter Selinger 2001-2013
</metadata>
<g transform="translate(0.000000,438.000000) scale(0.100000,-0.100000)"
fill="#000000" stroke="none">
<path d="M1520 3161 c-25 -10 -191 -102 -370 -206 -179 -103 -413 -239 -520
-300 -437 -252 -434 -250 -476 -333 -25 -49 -29 -69 -29 -138 0 -93 24 -153
86 -214 20 -19 157 -104 305 -189 148 -85 376 -217 507 -293 131 -76 243 -138
248 -138 5 0 9 -4 9 -10 0 -5 4 -10 9 -10 5 0 56 -27 113 -59 122 -70 172 -85
251 -77 245 25 356 318 190 503 -15 17 -63 51 -105 76 -102 61 -332 194 -388
225 -25 13 -49 28 -55 32 -5 4 -30 19 -55 32 -81 45 -114 64 -163 95 l-49 30
134 76 c430 247 631 365 662 392 157 131 117 406 -73 493 -71 33 -166 38 -231
13z"/>
<path d="M2677 3166 c-26 -7 -64 -27 -85 -43 -107 -86 -149 -206 -114 -327 29
-103 73 -144 268 -256 82 -47 155 -86 162 -88 6 -2 12 -8 12 -13 0 -5 4 -9 10
-9 5 0 47 -22 92 -49 46 -27 106 -62 134 -77 125 -71 203 -118 201 -120 -3 -3
-409 -239 -469 -273 -25 -14 -73 -41 -105 -60 -32 -19 -78 -45 -103 -59 -126
-70 -179 -128 -203 -223 -36 -140 27 -278 158 -347 42 -22 63 -27 130 -26 103
0 53 -25 585 284 173 100 333 192 355 205 265 150 441 256 470 284 20 18 48
57 62 85 22 42 27 65 27 131 1 68 -3 87 -26 130 -15 28 -38 62 -51 77 -20 23
-271 176 -467 285 -30 17 -122 69 -203 117 -82 47 -167 97 -190 110 -23 13
-114 65 -202 117 -239 139 -266 151 -338 155 -34 2 -84 -2 -110 -10z"/>
</g>
</svg>
